PathFileType	4	(X/Y/Z)	c:/Users/goper/Files/vsCode/490R/osim_files/A01/A01_PWS_02.trc
DataRate	CameraRate	NumFrames	NumMarkers	Units                	OrigDataRate	OrigDataStartFrame	OrigNumFrames
120.00	120.00	8	36	mm	120.0	1074	1431
                Frame#	Time	Mobility_markerset:LPSIS			Mobility_markerset:LASIS			Mobility_markerset:LTH1			Mobility_markerset:LTH2			Mobility_markerset:LTH3			Mobility_markerset:LTH4			Mobility_markerset:LLFE			Mobility_markerset:LMFE			Mobility_markerset:LSH1			Mobility_markerset:LSH2			Mobility_markerset:LSH3			Mobility_markerset:LSH4			Mobility_markerset:LLMAL			Mobility_markerset:LMMAL			Mobility_markerset:LCAL			Mobility_markerset:LMTP5			Mobility_markerset:LTOE			Mobility_markerset:LMTP1			Mobility_markerset:RPSIS			Mobility_markerset:RASIS			Mobility_markerset:RTH1			Mobility_markerset:RTH2			Mobility_markerset:RTH3			Mobility_markerset:RTH4			Mobility_markerset:RLFE			Mobility_markerset:RMFE			Mobility_markerset:RSH1			Mobility_markerset:RSH2			Mobility_markerset:RSH3			Mobility_markerset:RSH4			Mobility_markerset:RLMAL			Mobility_markerset:RMMAL			Mobility_markerset:RCAL			Mobility_markerset:RMTP1			Mobility_markerset:RTOE			Mobility_markerset:RMTP5		
		X1	Y1	Z1	X2	Y2	Z2	X3	Y3	Z3	X4	Y4	Z4	X5	Y5	Z5	X6	Y6	Z6	X7	Y7	Z7	X8	Y8	Z8	X9	Y9	Z9	X10	Y10	Z10	X11	Y11	Z11	X12	Y12	Z12	X13	Y13	Z13	X14	Y14	Z14	X15	Y15	Z15	X16	Y16	Z16	X17	Y17	Z17	X18	Y18	Z18	X19	Y19	Z19	X20	Y20	Z20	X21	Y21	Z21	X22	Y22	Z22	X23	Y23	Z23	X24	Y24	Z24	X25	Y25	Z25	X26	Y26	Z26	X27	Y27	Z27	X28	Y28	Z28	X29	Y29	Z29	X30	Y30	Z30	X31	Y31	Z31	X32	Y32	Z32	X33	Y33	Z33	X34	Y34	Z34	X35	Y35	Z35	X36	Y36	Z36

1074	8.94167	-4021.31079	1056.33777	642.59009	-3964.71606	1005.79889	885.10803	0.00000	0.00000	0.00000	-3936.26245	640.77295	841.06537	0.00000	0.00000	0.00000	0.00000	0.00000	0.00000	0.00000	0.00000	0.00000	-4124.23975	561.92859	919.19116	-1324.67871	1335.31909	3157.59814	0.00000	0.00000	0.00000	0.00000	0.00000	0.00000	0.00000	0.00000	0.00000	-4081.55884	89.69043	887.27136	-4162.97314	95.59149	894.68555	-4139.55371	61.49123	820.00934	-4040.35498	43.73674	1025.69751	-4099.93799	69.34464	1062.84851	-4136.53906	57.68185	1055.46252	-4122.76270	1057.18921	635.81116	0.00000	0.00000	0.00000	-4274.73438	695.57629	623.94519	-4271.93555	651.63654	626.39075	-4287.61182	690.39404	685.17554	-4284.17090	648.43457	677.13306	-4248.09375	506.63977	629.04022	0.00000	0.00000	0.00000	-4183.13525	380.19919	454.77759	-4178.34961	339.16513	433.98965	-4218.01807	349.70047	494.13541	-4210.37012	313.57642	468.75223	-4142.83838	168.98274	372.44513	0.00000	0.00000	0.00000	-4067.73584	162.16010	355.88156	-4150.58252	51.31079	505.63904	-4203.49854	59.13915	498.52969	-4220.67725	44.97369	415.27328
1075	8.95000	-4021.84399	1056.95251	650.09174	-3963.71606	1006.73541	892.04852	0.00000	0.00000	0.00000	-3936.42993	640.85437	845.74304	0.00000	0.00000	0.00000	0.00000	0.00000	0.00000	0.00000	0.00000	0.00000	-4124.45996	561.64496	923.28418	-1324.58533	1335.25061	3157.78052	0.00000	0.00000	0.00000	0.00000	0.00000	0.00000	0.00000	0.00000	0.00000	-4081.68628	89.66738	887.66370	-4162.98096	95.50255	894.95923	-4139.11328	61.49701	820.65454	-4040.51611	43.49384	1025.96069	-4100.12793	68.53750	1063.15515	-4136.73389	56.93653	1055.71936	-4123.45752	1057.48987	643.71143	0.00000	0.00000	0.00000	-4277.69141	695.16724	635.47601	-4275.30469	651.25757	638.18811	-4289.94629	690.54486	696.88556	-4287.03223	648.52466	689.06293	-4252.14697	506.31357	641.31268	0.00000	0.00000	0.00000	-4186.95068	383.10794	464.38840	-4182.04492	342.52521	442.82126	-4221.66162	351.71967	503.13989	-4213.95264	316.13654	477.04404	-4146.06152	173.99773	377.85110	0.00000	0.00000	0.00000	-4070.93872	169.00562	361.13599	-4150.84668	51.46486	506.48804	-4203.81201	59.17036	499.45029	-4221.56738	46.53908	416.65228
1076	8.95833	-4022.38916	1057.54211	657.47949	-3962.74561	1007.61475	898.91687	0.00000	0.00000	0.00000	-3936.32275	640.75439	850.09595	0.00000	0.00000	0.00000	0.00000	0.00000	0.00000	0.00000	0.00000	0.00000	-4124.50977	561.36969	927.19781	-1324.39099	1335.25037	3158.04370	0.00000	0.00000	0.00000	0.00000	0.00000	0.00000	0.00000	0.00000	0.00000	-4081.68750	89.65850	887.97913	-4162.96729	95.43639	895.20929	-4139.03320	61.71304	820.78711	-4040.64185	43.30838	1026.19568	-4100.25684	67.96178	1063.47217	-4136.89209	56.38057	1055.90002	-4124.13867	1057.80627	651.45477	0.00000	0.00000	0.00000	-4280.79785	694.68036	647.37817	-4278.81201	650.76233	650.42651	-4292.40674	690.64600	708.96265	-4289.94043	648.56036	701.46490	-4256.37061	505.82700	654.24146	0.00000	0.00000	0.00000	-4191.01367	385.97525	474.78055	-4185.89648	345.71060	452.28256	-4225.47559	353.62473	512.96979	-4217.68701	318.66196	486.07709	-4149.39600	179.30280	383.92975	0.00000	0.00000	0.00000	-4074.85352	176.50253	366.36111	-4151.05908	51.70692	507.52466	-4204.60596	59.07407	501.04254	-4222.47607	48.61248	418.23245
1077	8.96667	-4022.77856	1058.03906	664.80499	-3961.80225	1008.52020	905.66516	0.00000	0.00000	0.00000	0.00000	0.00000	0.00000	0.00000	0.00000	0.00000	0.00000	0.00000	0.00000	0.00000	0.00000	0.00000	-4124.36572	561.05182	930.95453	-1324.24548	1335.21191	3158.24072	0.00000	0.00000	0.00000	0.00000	0.00000	0.00000	0.00000	0.00000	0.00000	-4081.68481	89.65240	888.26453	-4162.94873	95.40735	895.44208	-4138.94629	61.86430	820.90112	-4040.70703	43.15866	1026.48071	-4100.13184	67.42497	1063.51965	-4136.94482	56.02014	1056.10938	-4124.76123	1058.14563	659.16797	0.00000	0.00000	0.00000	-4284.00586	694.04578	659.61554	-4282.45068	650.04688	662.86700	-4294.92773	690.73193	721.35962	-4292.97363	648.56238	714.28387	-4260.76221	505.15390	667.99072	0.00000	0.00000	0.00000	-4195.35938	388.79074	485.89331	-4190.09131	349.03580	462.55643	-4229.45605	355.36118	523.54993	-4221.61621	321.09360	495.87378	-4152.67725	184.81578	390.78125	0.00000	0.00000	0.00000	-4078.17285	184.03966	373.14355	-4151.49902	52.34250	508.97507	-4205.37354	59.17232	502.94818	-4223.54590	51.50402	420.12976
1078	8.97500	-4023.21362	1058.47925	671.98480	-3960.59644	1009.51807	912.25574	0.00000	0.00000	0.00000	-3940.29224	656.46509	906.93860	0.00000	0.00000	0.00000	-3935.97339	640.68457	858.09186	0.00000	0.00000	0.00000	-4124.14746	560.77765	934.57690	-1324.04993	1335.22180	3158.54883	0.00000	0.00000	0.00000	0.00000	0.00000	0.00000	0.00000	0.00000	0.00000	-4081.53027	89.71476	888.48413	-4162.91992	95.39459	895.64130	-4139.14893	62.11323	820.54639	-4040.69971	42.98627	1026.70935	-4100.34863	67.12516	1063.93555	-4136.97070	55.72162	1056.30615	-4125.34961	1058.46716	666.76508	0.00000	0.00000	0.00000	-4287.28418	693.30145	672.18439	-4286.04199	649.42651	676.09552	-4297.55127	690.69006	734.07288	-4296.03223	648.45007	727.37268	-4265.18945	504.21490	682.31104	0.00000	0.00000	0.00000	-4199.89746	391.47922	497.73215	-4194.58838	352.39728	473.56717	-4233.56641	357.05035	534.84363	-4225.53418	323.35233	506.43796	-4155.76416	190.76596	399.12830	0.00000	0.00000	0.00000	-4081.08643	191.64227	381.19330	-4152.19385	53.39838	510.85880	-4206.27783	59.57080	505.07123	-4224.82080	55.30881	422.59918
1079	8.98333	-4023.52515	1058.75549	679.03345	-3959.58496	1010.36829	918.65723	0.00000	0.00000	0.00000	0.00000	0.00000	0.00000	0.00000	0.00000	0.00000	-3936.17993	640.07837	862.20410	0.00000	0.00000	0.00000	-4123.82715	560.45380	938.04132	-1323.87146	1335.25000	3158.78101	0.00000	0.00000	0.00000	0.00000	0.00000	0.00000	0.00000	0.00000	0.00000	-4081.55762	89.75697	888.77759	-4162.92236	95.36144	895.81964	-4138.81396	62.13877	821.11530	-4040.72388	42.81977	1026.91541	-4100.39307	66.78252	1064.15125	-4136.99951	55.41492	1056.47266	-4125.82422	1058.67053	674.14172	0.00000	0.00000	0.00000	-4290.62402	692.30957	684.93860	-4289.74316	648.47968	689.38971	-4300.10742	690.55780	747.00684	-4299.08789	648.24603	740.84839	-4269.49854	503.12289	697.10693	0.00000	0.00000	0.00000	-4204.60498	394.05914	510.17761	-4199.07666	355.51065	485.27078	-4237.62451	358.47787	546.80463	-4229.47998	325.51016	517.66211	-4159.22559	196.98109	407.51071	0.00000	0.00000	0.00000	-4084.61914	199.76117	389.32123	-4153.15918	54.82691	513.09937	-4207.23975	60.27998	507.41644	-4226.35498	59.67511	425.34708
1080	8.99167	-4023.74146	1058.87610	685.87665	-3958.40674	1011.07117	924.85010	0.00000	0.00000	0.00000	0.00000	0.00000	0.00000	0.00000	0.00000	0.00000	-3935.40186	640.48352	865.08771	0.00000	0.00000	0.00000	-4123.36768	560.17206	941.35840	-1323.70605	1335.29626	3159.00977	0.00000	0.00000	0.00000	0.00000	0.00000	0.00000	0.00000	0.00000	0.00000	-4081.51489	89.73717	888.98364	-4162.92773	95.33940	895.99310	-4138.77197	62.30991	821.21692	-4040.72388	42.65763	1027.04358	-4100.42578	66.47097	1064.31384	-4137.05762	55.17945	1056.59204	-4126.27734	1058.75610	681.33014	0.00000	0.00000	0.00000	-4293.97656	691.17804	697.90344	-4293.42090	647.46246	702.87506	-4302.58594	690.33307	760.10718	-4302.01953	647.95862	754.52002	-4273.43994	501.92932	712.31360	0.00000	0.00000	0.00000	-4209.38135	396.56839	523.18097	-4204.09424	358.94635	497.18347	-4241.68652	359.85574	559.33313	-4233.52881	327.67834	529.46075	-4162.85156	203.39500	416.40775	0.00000	0.00000	0.00000	-4088.29150	208.08394	397.98566	-4154.59229	56.79991	515.80334	-4208.49902	61.45821	510.01358	-4228.02002	64.64822	428.44931
1081	9.00000	-4023.90869	1058.83191	692.52332	-3957.21802	1011.64240	930.98468	0.00000	0.00000	0.00000	0.00000	0.00000	0.00000	0.00000	0.00000	0.00000	-3935.09326	640.46417	868.28369	0.00000	0.00000	0.00000	-4122.72168	559.80780	944.59998	-1323.62915	1335.29883	3159.21606	0.00000	0.00000	0.00000	0.00000	0.00000	0.00000	0.00000	0.00000	0.00000	-4081.51514	89.74121	889.16779	-4162.92725	95.35836	896.16608	-4138.71631	62.49408	821.31512	-4040.80981	42.60702	1027.16248	-4100.44287	66.17197	1064.48157	-4137.09521	54.96068	1056.72046	-4126.64844	1058.73535	688.29822	0.00000	0.00000	0.00000	-4297.32275	689.89008	710.93610	-4296.93115	646.18250	716.71887	-4304.95508	690.08362	773.35266	-4304.73877	647.56659	768.41022	-4277.05029	500.70163	727.89014	0.00000	0.00000	0.00000	-4214.09521	399.11890	536.64972	-4208.65820	362.14301	509.77328	-4245.66650	361.33517	572.33575	-4237.44141	329.87393	541.68323	-4166.52783	209.98744	425.69116	0.00000	0.00000	0.00000	-4092.26050	216.57782	407.19968	-4156.39844	59.48723	519.05017	-4209.80176	63.12276	513.02802	-4229.89111	70.33456	432.11258
